<svg xmlns="http://www.w3.org/2000/svg" xmlns:xlink="http://www.w3.org/1999/xlink" preserveAspectRatio="xMidYMid meet" version="1.0" viewBox="485.9 311.0 1028.2 1376.4" zoomAndPan="magnify" style="fill: rgb(0, 0, 0);" original_string_length="9858"><g id="__id156_sqoz7wd8g" style="fill: rgb(253, 240, 203);"><path d="M 698.699219 1614.519531 C 896.019531 1674.140625 1103.988281 1674.140625 1301.308594 1614.511719 C 1331.730469 1472.148438 1365.570312 1321.050781 1407.121094 1173.878906 C 1375.710938 1178.511719 1342.039062 1177.148438 1306.691406 1169.800781 C 1247.75 1157.539062 1193.320312 1123.550781 1154.988281 1075.550781 C 1154.808594 1075.75 1154.621094 1075.949219 1154.421875 1076.148438 C 1115.089844 1114.359375 1058.808594 1136.28125 1000 1136.28125 C 942.117188 1136.28125 887.359375 1115 845.808594 1076.359375 C 845.527344 1076.101562 845.257812 1075.828125 845.003906 1075.550781 C 806.65625 1123.550781 752.226562 1157.550781 693.3125 1169.800781 C 657.960938 1177.148438 624.285156 1178.511719 592.882812 1173.878906 C 634.390625 1320.921875 668.253906 1472.078125 698.699219 1614.519531 Z M 1000 1687.429688 C 893.160156 1687.429688 786.328125 1671.300781 682.460938 1639.03125 C 677.589844 1637.519531 673.917969 1633.5 672.855469 1628.511719 C 640.539062 1477.050781 604.433594 1315.398438 559.445312 1159.460938 C 558.042969 1154.609375 559.347656 1149.378906 562.859375 1145.75 C 566.371094 1142.121094 571.558594 1140.648438 576.453125 1141.890625 C 610.128906 1150.421875 647.515625 1150.519531 687.570312 1142.191406 C 744.953125 1130.261719 797.625 1095.109375 832.078125 1045.761719 C 835.371094 1041.039062 838.507812 1036.171875 841.402344 1031.300781 C 844.550781 1025.988281 850.785156 1023.351562 856.785156 1024.78125 C 862.789062 1026.210938 867.164062 1031.371094 867.589844 1037.519531 C 867.910156 1042.148438 868.226562 1046.769531 868.539062 1051.390625 C 868.722656 1054.058594 868.902344 1056.730469 869.085938 1059.390625 C 904.875 1090.828125 951.144531 1108.078125 1000 1108.078125 C 1049.621094 1108.078125 1097 1090.460938 1130.898438 1059.558594 C 1131.089844 1056.839844 1131.269531 1054.121094 1131.460938 1051.398438 C 1131.78125 1046.769531 1132.089844 1042.148438 1132.410156 1037.519531 C 1132.828125 1031.371094 1137.210938 1026.210938 1143.21875 1024.78125 C 1149.210938 1023.351562 1155.449219 1025.988281 1158.601562 1031.300781 C 1161.5 1036.191406 1164.640625 1041.050781 1167.921875 1045.761719 C 1202.351562 1095.109375 1255.019531 1130.261719 1312.429688 1142.191406 C 1352.480469 1150.519531 1389.871094 1150.421875 1423.550781 1141.890625 C 1428.441406 1140.648438 1433.628906 1142.121094 1437.140625 1145.75 C 1440.648438 1149.378906 1441.960938 1154.609375 1440.558594 1159.460938 C 1395.519531 1315.539062 1359.441406 1477.128906 1327.160156 1628.5 C 1326.089844 1633.488281 1322.421875 1637.511719 1317.550781 1639.03125 C 1213.679688 1671.300781 1106.839844 1687.429688 1000 1687.429688" style="fill: inherit;"/><path d="M 896.007812 1683.328125 C 888.648438 1683.328125 882.449219 1677.621094 881.953125 1670.171875 C 867.414062 1451.589844 854.128906 1254.289062 841.34375 1067 C 840.8125 1059.230469 846.679688 1052.5 854.449219 1051.96875 C 862.222656 1051.441406 868.945312 1057.308594 869.476562 1065.070312 C 882.265625 1252.378906 895.550781 1449.699219 910.089844 1668.300781 C 910.609375 1676.070312 904.726562 1682.78125 896.957031 1683.300781 C 896.640625 1683.320312 896.324219 1683.328125 896.007812 1683.328125" style="fill: inherit;"/><path d="M 1103.988281 1683.328125 C 1103.679688 1683.328125 1103.359375 1683.320312 1103.039062 1683.300781 C 1095.269531 1682.78125 1089.390625 1676.070312 1089.910156 1668.300781 C 1104.398438 1450.351562 1117.691406 1253.03125 1130.519531 1065.070312 C 1131.050781 1057.308594 1137.769531 1051.429688 1145.550781 1051.96875 C 1153.320312 1052.5 1159.191406 1059.230469 1158.660156 1067 C 1145.820312 1254.929688 1132.539062 1452.230469 1118.050781 1670.171875 C 1117.550781 1677.621094 1111.351562 1683.328125 1103.988281 1683.328125" style="fill: inherit;"/><path d="M 1425.351562 1175.519531 C 1420.53125 1175.519531 1415.828125 1173.050781 1413.199219 1168.601562 C 1409.230469 1161.898438 1411.449219 1153.25 1418.160156 1149.289062 L 1418.820312 1148.898438 C 1418.878906 1148.859375 1418.941406 1148.820312 1419 1148.78125 C 1461.519531 1123.378906 1485.898438 1085.929688 1485.898438 1046.039062 C 1485.898438 1009.949219 1466.28125 976.160156 1430.648438 950.878906 C 1424.300781 946.371094 1422.808594 937.570312 1427.308594 931.21875 C 1431.820312 924.871094 1440.621094 923.378906 1446.96875 927.878906 C 1467.730469 942.609375 1484.128906 960.101562 1495.699219 979.839844 C 1507.910156 1000.679688 1514.101562 1022.949219 1514.101562 1046.039062 C 1514.101562 1096.070312 1484.738281 1142.320312 1433.550781 1172.941406 C 1433.28125 1173.109375 1433.011719 1173.261719 1432.738281 1173.429688 L 1432.511719 1173.558594 C 1430.261719 1174.890625 1427.789062 1175.519531 1425.351562 1175.519531" style="fill: inherit;"/><path d="M 574.652344 1175.519531 C 572.214844 1175.519531 569.742188 1174.890625 567.488281 1173.558594 L 567.265625 1173.429688 C 566.992188 1173.261719 566.722656 1173.109375 566.453125 1172.941406 C 515.257812 1142.320312 485.902344 1096.070312 485.902344 1046.039062 C 485.902344 1022.949219 492.09375 1000.679688 504.304688 979.839844 C 515.875 960.101562 532.269531 942.609375 553.03125 927.878906 C 559.382812 923.378906 568.179688 924.871094 572.6875 931.21875 C 577.191406 937.570312 575.699219 946.371094 569.347656 950.878906 C 533.71875 976.160156 514.097656 1009.949219 514.097656 1046.039062 C 514.097656 1085.929688 538.484375 1123.378906 580.996094 1148.78125 C 581.058594 1148.820312 581.121094 1148.859375 581.183594 1148.898438 L 581.84375 1149.289062 C 588.546875 1153.25 590.765625 1161.898438 586.800781 1168.601562 C 584.171875 1173.050781 579.472656 1175.519531 574.652344 1175.519531" style="fill: inherit;"/><path d="M 1438.800781 953.480469 C 1436.480469 953.480469 1434.128906 952.910156 1431.960938 951.699219 C 1425.148438 947.921875 1422.710938 939.328125 1426.488281 932.53125 C 1433.289062 920.308594 1436.878906 906.390625 1436.878906 892.28125 C 1436.878906 870.109375 1428.25 849.261719 1412.570312 833.570312 C 1396.890625 817.898438 1376.039062 809.261719 1353.871094 809.261719 L 646.132812 809.261719 C 600.359375 809.261719 563.121094 846.5 563.121094 892.28125 C 563.121094 906.390625 566.714844 920.308594 573.511719 932.53125 C 577.296875 939.328125 574.847656 947.921875 568.039062 951.699219 C 561.238281 955.480469 552.652344 953.039062 548.867188 946.230469 C 539.742188 929.828125 534.921875 911.171875 534.921875 892.28125 C 534.921875 830.949219 584.8125 781.058594 646.132812 781.058594 L 1353.871094 781.058594 C 1383.558594 781.058594 1411.488281 792.628906 1432.511719 813.628906 C 1453.511719 834.648438 1465.078125 862.578125 1465.078125 892.28125 C 1465.078125 911.171875 1460.261719 929.828125 1451.128906 946.230469 C 1448.558594 950.871094 1443.75 953.480469 1438.800781 953.480469" style="fill: inherit;"/><path d="M 759.066406 651.878906 C 747.066406 651.878906 735.5625 658.140625 726.675781 669.511719 C 716.988281 681.898438 711.652344 698.578125 711.652344 716.46875 C 711.652344 734.359375 716.988281 751.03125 726.679688 763.429688 C 735.566406 774.800781 747.070312 781.058594 759.066406 781.058594 L 1240.929688 781.058594 C 1252.929688 781.058594 1264.441406 774.800781 1273.320312 763.429688 C 1283.011719 751.03125 1288.351562 734.359375 1288.351562 716.46875 C 1288.351562 698.570312 1283.011719 681.898438 1273.328125 669.519531 C 1264.441406 658.140625 1252.941406 651.878906 1240.929688 651.878906 Z M 1240.929688 809.261719 L 759.066406 809.261719 C 738.203125 809.261719 718.8125 799.148438 704.464844 780.800781 C 690.914062 763.460938 683.453125 740.621094 683.453125 716.46875 C 683.453125 692.320312 690.914062 669.46875 704.460938 652.140625 C 718.808594 633.789062 738.199219 623.679688 759.066406 623.679688 L 1240.929688 623.679688 C 1261.808594 623.679688 1281.210938 633.789062 1295.539062 652.160156 C 1309.078125 669.460938 1316.550781 692.300781 1316.550781 716.46875 C 1316.550781 740.621094 1309.089844 763.460938 1295.539062 780.789062 C 1281.191406 799.148438 1261.800781 809.261719 1240.929688 809.261719" style="fill: inherit;"/><path d="M 1173.609375 651.878906 C 1169.351562 651.878906 1165.140625 649.960938 1162.371094 646.300781 C 1157.660156 640.101562 1158.871094 631.261719 1165.078125 626.550781 C 1200.46875 599.691406 1221.140625 565.890625 1226.5 526.089844 C 1234.019531 470.28125 1210.699219 413.121094 1190.660156 376.070312 C 1187.648438 394.171875 1180.660156 414.539062 1165.910156 433.058594 C 1137.039062 469.328125 1087.390625 487.71875 1018.328125 487.71875 C 944.675781 487.71875 892.480469 512.660156 863.199219 561.859375 C 840.992188 599.160156 840.503906 637.449219 840.5 637.828125 C 840.453125 645.589844 834.152344 651.859375 826.402344 651.859375 C 826.386719 651.859375 826.367188 651.859375 826.351562 651.859375 C 818.578125 651.828125 812.296875 645.539062 812.304688 637.769531 C 812.304688 635.929688 812.648438 592.410156 838.292969 548.578125 C 862.066406 507.949219 912.597656 459.519531 1018.328125 459.519531 C 1078.371094 459.519531 1120.601562 444.710938 1143.851562 415.5 C 1173.28125 378.53125 1162.609375 330.238281 1162.5 329.75 C 1161.011719 323.289062 1164.230469 316.660156 1170.230469 313.828125 C 1176.230469 311.011719 1183.390625 312.75 1187.429688 318.011719 C 1188.261719 319.101562 1207.988281 345.03125 1226.171875 383.808594 C 1250.539062 435.789062 1260.320312 486.289062 1254.449219 529.859375 C 1248.050781 577.371094 1223.710938 617.460938 1182.121094 649.011719 C 1179.570312 650.949219 1176.578125 651.878906 1173.609375 651.878906" style="fill: inherit;"/></g></svg>