<svg xmlns="http://www.w3.org/2000/svg" width="390" height="334" viewBox="0 0 390 334" version="1.1"><path d="M 80 0.630 C 42.083 7.948, 14.883 35.457, 4.490 77 C -5.749 117.922, 1.990 155.715, 28.755 195.500 C 53.290 231.970, 92.529 268.308, 146 304.075 C 167.704 318.593, 194.175 334.146, 195.995 333.450 C 199.504 332.109, 231.634 312.474, 244.949 303.534 C 327.013 248.437, 376.270 190.716, 387.462 136.532 C 388.308 132.436, 389 127.742, 389 126.101 C 389 124.460, 389.450 122.840, 390 122.500 C 390.569 122.149, 391 117.137, 391 110.882 C 391 103.803, 390.644 100.102, 390 100.500 C 389.406 100.867, 389 99.689, 389 97.594 C 389 95.657, 388.145 89.667, 387.099 84.285 C 377.673 35.763, 344.598 2.815, 302.788 0.298 C 281.057 -1.010, 259.681 6.050, 237.569 21.838 C 227.446 29.066, 210.320 46.053, 202.121 57 C 198.619 61.675, 195.472 65.591, 195.127 65.702 C 194.782 65.813, 191.800 62.260, 188.500 57.806 C 180.155 46.545, 162.142 28.720, 151.460 21.154 C 140.808 13.608, 125.390 5.912, 115 2.952 C 107.644 0.857, 86.197 -0.566, 80 0.630 M 83.390 11.089 C 63.379 13.425, 42.449 26.655, 30.202 44.709 C 17.852 62.916, 12.268 81.521, 11.357 107.500 C 10.869 121.438, 11.075 124.848, 12.959 133.957 C 14.149 139.708, 16.711 148.708, 18.654 153.957 C 37.641 205.264, 95.222 262.069, 179.776 312.907 L 195.052 322.092 208.776 313.863 C 251.811 288.059, 289.522 259.542, 317.005 232.023 C 358.894 190.078, 379.009 151.243, 378.996 112.343 C 378.980 65.167, 357.164 28.023, 321.674 14.747 C 314.583 12.095, 311.832 11.629, 300.916 11.232 C 290.349 10.847, 286.982 11.115, 279.916 12.900 C 254.601 19.297, 227.181 40.192, 206.589 68.780 C 198.371 80.189, 191.591 79.783, 182.291 67.324 C 167.642 47.701, 152.538 33.506, 135.925 23.748 C 117.835 13.123, 100.906 9.044, 83.390 11.089 M 77.124 27.578 C 69.659 29.585, 59.438 35.149, 53.216 40.593 C 35.335 56.234, 24.552 86.722, 26.369 116.500 C 29.239 163.532, 69.162 215.531, 143.500 269.061 C 159.816 280.811, 192.927 302, 194.967 301.999 C 198.242 301.997, 240.579 274.079, 260 259.116 C 309.596 220.904, 342.754 183.063, 355.990 149.568 C 359.551 140.556, 363.388 125.436, 362.484 123.975 C 361.720 122.739, 359.298 122.709, 358.545 123.927 C 358.230 124.437, 356.869 129.202, 355.521 134.515 C 344.256 178.923, 296.402 230.706, 220.643 280.465 C 211.214 286.658, 201.588 292.799, 199.250 294.112 L 195 296.500 190.750 294.096 C 183.206 289.829, 152.794 269.613, 142.500 262.024 C 90.698 223.833, 58.623 189.588, 41.939 154.662 C 34.473 139.032, 31.723 127.518, 31.630 111.500 C 31.544 96.607, 33.008 87.027, 37.182 75.167 C 45.255 52.230, 61.177 36.492, 80.886 31.971 C 96.569 28.373, 117.038 34.618, 134.897 48.449 C 142.559 54.382, 156.354 68.804, 163.789 78.654 C 167.174 83.139, 171.644 88.210, 173.722 89.924 C 185.142 99.344, 204.820 99.376, 216.195 89.993 C 218.227 88.316, 223.452 82.345, 227.804 76.722 C 269.205 23.245, 318.395 15.959, 345.409 59.302 C 348.048 63.536, 350.555 67, 350.981 67 C 351.407 67, 352.299 66.345, 352.964 65.544 C 354.541 63.643, 350.747 56.507, 343.466 47.681 C 323.464 23.431, 292.451 19.299, 263.054 36.968 C 248.218 45.884, 234.452 59.209, 219.279 79.338 C 212.559 88.254, 205.210 92, 194.438 92 C 189.326 92, 187.021 91.403, 181.898 88.750 C 176.488 85.949, 174.450 83.994, 167.144 74.599 C 147.005 48.705, 125.354 32.312, 105 27.550 C 96.912 25.658, 84.214 25.671, 77.124 27.578 M 353.410 73.373 C 352.452 75.871, 356.258 86.436, 358.253 86.815 C 360.988 87.335, 361.335 84.615, 359.337 78.312 C 357.492 72.493, 354.655 70.129, 353.410 73.373 M 358.418 93.354 C 358.132 94.098, 358.259 99.836, 358.699 106.104 C 359.434 116.566, 359.664 117.500, 361.500 117.500 C 363.390 117.500, 363.492 116.880, 363.361 106.236 C 363.271 98.967, 362.784 94.445, 361.988 93.486 C 360.453 91.636, 359.096 91.586, 358.418 93.354 M 0.378 112 C 0.378 118.325, 0.541 120.912, 0.739 117.750 C 0.937 114.587, 0.937 109.412, 0.739 106.250 C 0.541 103.087, 0.378 105.675, 0.378 112" stroke="none" fill="#1f1c25" fill-rule="evenodd"/><path d="M 83.390 11.089 C 63.379 13.425, 42.449 26.655, 30.202 44.709 C 17.852 62.916, 12.268 81.521, 11.357 107.500 C 10.869 121.438, 11.075 124.848, 12.959 133.957 C 14.149 139.708, 16.711 148.708, 18.654 153.957 C 37.641 205.264, 95.222 262.069, 179.776 312.907 L 195.052 322.092 208.776 313.863 C 251.811 288.059, 289.522 259.542, 317.005 232.023 C 358.894 190.078, 379.009 151.243, 378.996 112.343 C 378.980 65.167, 357.164 28.023, 321.674 14.747 C 314.583 12.095, 311.832 11.629, 300.916 11.232 C 290.349 10.847, 286.982 11.115, 279.916 12.900 C 254.601 19.297, 227.181 40.192, 206.589 68.780 C 198.371 80.189, 191.591 79.783, 182.291 67.324 C 167.642 47.701, 152.538 33.506, 135.925 23.748 C 117.835 13.123, 100.906 9.044, 83.390 11.089 M 77.124 27.578 C 69.659 29.585, 59.438 35.149, 53.216 40.593 C 35.335 56.234, 24.552 86.722, 26.369 116.500 C 29.239 163.532, 69.162 215.531, 143.500 269.061 C 159.816 280.811, 192.927 302, 194.967 301.999 C 198.242 301.997, 240.579 274.079, 260 259.116 C 309.596 220.904, 342.754 183.063, 355.990 149.568 C 359.551 140.556, 363.388 125.436, 362.484 123.975 C 361.720 122.739, 359.298 122.709, 358.545 123.927 C 358.230 124.437, 356.869 129.202, 355.521 134.515 C 344.256 178.923, 296.402 230.706, 220.643 280.465 C 211.214 286.658, 201.588 292.799, 199.250 294.112 L 195 296.500 190.750 294.096 C 183.206 289.829, 152.794 269.613, 142.500 262.024 C 90.698 223.833, 58.623 189.588, 41.939 154.662 C 34.473 139.032, 31.723 127.518, 31.630 111.500 C 31.544 96.607, 33.008 87.027, 37.182 75.167 C 45.255 52.230, 61.177 36.492, 80.886 31.971 C 96.569 28.373, 117.038 34.618, 134.897 48.449 C 142.559 54.382, 156.354 68.804, 163.789 78.654 C 167.174 83.139, 171.644 88.210, 173.722 89.924 C 185.142 99.344, 204.820 99.376, 216.195 89.993 C 218.227 88.316, 223.452 82.345, 227.804 76.722 C 269.205 23.245, 318.395 15.959, 345.409 59.302 C 348.048 63.536, 350.555 67, 350.981 67 C 351.407 67, 352.299 66.345, 352.964 65.544 C 354.541 63.643, 350.747 56.507, 343.466 47.681 C 323.464 23.431, 292.451 19.299, 263.054 36.968 C 248.218 45.884, 234.452 59.209, 219.279 79.338 C 212.559 88.254, 205.210 92, 194.438 92 C 189.326 92, 187.021 91.403, 181.898 88.750 C 176.488 85.949, 174.450 83.994, 167.144 74.599 C 147.005 48.705, 125.354 32.312, 105 27.550 C 96.912 25.658, 84.214 25.671, 77.124 27.578 M 353.410 73.373 C 352.452 75.871, 356.258 86.436, 358.253 86.815 C 360.988 87.335, 361.335 84.615, 359.337 78.312 C 357.492 72.493, 354.655 70.129, 353.410 73.373 M 358.418 93.354 C 358.132 94.098, 358.259 99.836, 358.699 106.104 C 359.434 116.566, 359.664 117.500, 361.500 117.500 C 363.390 117.500, 363.492 116.880, 363.361 106.236 C 363.271 98.967, 362.784 94.445, 361.988 93.486 C 360.453 91.636, 359.096 91.586, 358.418 93.354" stroke="none" fill="#fb5b6b" fill-rule="evenodd"/></svg>