<svg xmlns="http://www.w3.org/2000/svg" xmlns:xlink="http://www.w3.org/1999/xlink" preserveAspectRatio="xMidYMid meet" version="1.0" viewBox="0.0 -0.0 501.2 151.7" zoomAndPan="magnify" style="fill: rgb(0, 0, 0);" original_string_length="2823"><g id="__id153_sjwji3hf4t"><path d="M499.7,18.5c0-.2,0-.5,0-.7v-.2c0-.4,0-.9,0-1.3,0-.2,0-.3,0-.5-.5-4.4-2.5-8.4-5.7-11.2-3.1-2.8-7.3-4.6-11.8-4.6-8,0-12.1,3.6-15.8,6.8-3.6,3.1-6.7,5.9-13.3,5.9s-9.7-2.7-13.3-5.9c-3.6-3.2-7.8-6.8-15.8-6.8s-12.1,3.6-15.8,6.8c-3.6,3.1-6.7,5.9-13.3,5.9s-9.7-2.7-13.3-5.9c-3.7-3.2-7.8-6.8-15.8-6.8s-12.1,3.6-15.8,6.8c-3.6,3.1-6.7,5.9-13.3,5.9s-9.7-2.7-13.3-5.9c-3.7-3.2-7.8-6.8-15.8-6.8s-12.1,3.6-15.8,6.8c-3.6,3.1-6.7,5.9-13.3,5.9s-9.6-2.7-13.3-5.9c-3.6-3.2-7.8-6.8-15.8-6.8s-12.1,3.6-15.8,6.8c-3.6,3.1-6.7,5.9-13.3,5.9s-9.6-2.7-13.3-5.9c-3.6-3.2-7.8-6.8-15.8-6.8s-12.1,3.6-15.8,6.8c-3.6,3.1-6.7,5.9-13.3,5.9s-9.7-2.7-13.3-5.9c-3.7-3.2-7.8-6.8-15.8-6.8s-12.1,3.6-15.8,6.8c-3.6,3.1-6.7,5.9-13.3,5.9s-9.6-2.7-13.3-5.9c-3.6-3.2-7.8-6.8-15.8-6.8s-12.1,3.6-15.8,6.8c-3.6,3.1-6.7,5.9-13.3,5.9s-9.7-2.7-13.3-5.9C29.9,3.6,25.8,0,17.9,0h0c-.1,0-.2,0-.3,0C8.5,0,1,6.9,0,15.8c0,.3,0,.5,0,.8,0,.3,0,.6,0,1H0c0,.4,0,.6,0,.9,.2,7.5,3.7,11.5,6.8,15.1,3.2,3.6,5.9,6.7,5.9,13.3s-2.7,9.6-5.9,13.2c-3.2,3.7-6.8,7.8-6.8,15.8s3.6,12.1,6.8,15.8c3.1,3.6,5.9,6.7,5.9,13.3s-2.7,9.6-5.9,13.3c-2.9,3.4-6.3,7.2-6.7,14,0,.3,0,.6,0,.9,0,.3,0,.6,0,.9v.2c0,.3,0,.5,0,.7h0c.5,9.3,8.2,16.7,17.6,16.7s.2,0,.3,0h0c8,0,12.1-3.6,15.8-6.8,3.6-3.1,6.7-5.9,13.3-5.9s9.7,2.7,13.3,5.9c3.6,3.2,7.8,6.8,15.8,6.8s12.1-3.6,15.8-6.8c3.6-3.1,6.7-5.9,13.3-5.9s9.7,2.7,13.3,5.9c3.7,3.2,7.8,6.8,15.8,6.8s12.1-3.6,15.8-6.8c3.6-3.1,6.7-5.9,13.3-5.9s9.7,2.7,13.3,5.9c3.7,3.2,7.8,6.8,15.8,6.8s12.1-3.6,15.8-6.8c3.6-3.1,6.7-5.9,13.3-5.9s9.6,2.7,13.3,5.9c3.6,3.2,7.8,6.8,15.8,6.8s12.1-3.6,15.8-6.8c3.6-3.1,6.7-5.9,13.3-5.9s9.6,2.7,13.3,5.9c3.6,3.2,7.8,6.8,15.8,6.8s12.1-3.6,15.8-6.8c3.6-3.1,6.7-5.9,13.2-5.9s9.7,2.7,13.3,5.9c3.7,3.2,7.8,6.8,15.8,6.8s12.1-3.6,15.8-6.8c3.6-3.1,6.7-5.9,13.3-5.9s9.6,2.7,13.3,5.9c3.6,3.2,7.8,6.8,15.8,6.8s12.1-3.6,15.8-6.8c3.6-3.1,6.7-5.9,13.3-5.9s9.7,2.7,13.3,5.9c3.7,3.2,7.8,6.8,15.8,6.8s17.1-7.4,17.6-16.7h0c0-.2,0-.5,0-.7v-.2c0-.3,0-.7,0-1,0-.3,0-.5,0-.8,0,0,0,0,0,0h0c-.5-6.8-3.8-10.6-6.7-14-3.1-3.6-5.9-6.7-5.9-13.3s2.7-9.7,5.9-13.3c3.2-3.7,6.8-7.8,6.8-15.8s-3.6-12.1-6.8-15.8c-3.2-3.6-5.9-6.7-5.9-13.2s2.7-9.6,5.9-13.3c3.1-3.5,6.6-7.5,6.8-15.1Z" style="fill: rgb(240, 199, 165);"/></g><g id="__id154_sjwji3hf4t"><rect height="99.8" rx="6.5" ry="6.5" width="447.6" x="26" y="25.8" style="fill: rgb(255, 255, 255);"/></g><g id="__id155_sjwji3hf4t"><path d="M455.2,115.4H44.5c-4.6,0-8.3-3.7-8.3-8.3V44.3c0-4.6,3.7-8.3,8.3-8.3H455.2c4.6,0,8.3,3.7,8.3,8.3v62.8c0,4.6-3.7,8.3-8.3,8.3ZM44.5,39.6c-2.6,0-4.7,2.1-4.7,4.7v62.8c0,2.6,2.1,4.7,4.7,4.7H455.2c2.6,0,4.7-2.1,4.7-4.7V44.3c0-2.6-2.1-4.7-4.7-4.7H44.5Z" style="fill: rgb(225, 137, 105);"/></g></svg>